<?xml version="1.0" encoding="utf-8"?>
<!-- Generator: Adobe Illustrator 22.0.0, SVG Export Plug-In . SVG Version: 6.00 Build 0)  -->
<svg version="1.1"
	 id="Layer_1" xmlns:cc="http://creativecommons.org/ns#" xmlns:dc="http://purl.org/dc/elements/1.1/" xmlns:inkscape="http://www.inkscape.org/namespaces/inkscape" xmlns:rdf="http://www.w3.org/1999/02/22-rdf-syntax-ns#" xmlns:sodipodi="http://sodipodi.sourceforge.net/DTD/sodipodi-0.dtd" xmlns:svg="http://www.w3.org/2000/svg"
	 xmlns="http://www.w3.org/2000/svg" xmlns:xlink="http://www.w3.org/1999/xlink" x="0px" y="0px" viewBox="0 0 16 11"
	 style="enable-background:new 0 0 16 11;" xml:space="preserve">
<g>
	<path d="M2.1,0.1c-0.8,0-1.5,0.7-1.5,1.5V3v1.8v4.6c0,0.8,0.7,1.5,1.5,1.5h11.9c0.8,0,1.5-0.7,1.5-1.5V4.9V3V1.6
		c0-0.8-0.7-1.5-1.5-1.5H2.1z M2.1,0.6h11.9c0.5,0,1,0.4,1,1v1.2H1.1V1.6C1.1,1.1,1.5,0.6,2.1,0.6z M1.1,3.3h13.8v1.3H1.1V3.3z
		 M1.1,5.1h13.8v4.3c0,0.5-0.4,1-1,1H2.1c-0.5,0-1-0.4-1-1V5.1z M2.7,6.9C2.6,6.9,2.5,7,2.5,7.1c0,0.1,0.1,0.3,0.3,0.3c0,0,0,0,0,0
		h3.3c0.1,0,0.3-0.1,0.3-0.3c0-0.1-0.1-0.3-0.3-0.3H2.7z M2.7,8.3c-0.1,0-0.3,0.1-0.3,0.3c0,0.1,0.1,0.3,0.3,0.3c0,0,0,0,0,0h1.4
		c0.1,0,0.3-0.1,0.3-0.3c0-0.1-0.1-0.3-0.3-0.3c0,0,0,0,0,0H2.7z"/>
</g>
</svg>
