<?xml version="1.0" encoding="utf-8"?>
<!-- Generator: Adobe Illustrator 22.0.0, SVG Export Plug-In . SVG Version: 6.00 Build 0)  -->
<svg version="1.1" id="Layer_1" xmlns="http://www.w3.org/2000/svg" xmlns:xlink="http://www.w3.org/1999/xlink" x="0px" y="0px"
	 viewBox="0 0 25.4 25.9" style="enable-background:new 0 0 25.4 25.9;" xml:space="preserve">
<style type="text/css">
	.st0{display:none;}
	.st1{display:inline;}
</style>
<g class="st0">
	<rect x="-415.3" y="-103.6" class="st1" width="473.3" height="236"/>
</g>
<g class="st0">
	<g class="st1">
		<g>
			<circle cx="8.7" cy="7.7" r="8.7"/>
		</g>
		<g>
			<circle cx="23.3" cy="22.3" r="8.7"/>
		</g>
	</g>
</g>
<g>
	<g>
		<path d="M17.7,7.9c-0.7-4-4.3-7.1-8.5-7.1c-4.8,0-8.7,3.9-8.7,8.7c0,4.3,3.1,7.8,7.1,8.5c0.3,0.1,0.7,0.1,1.1,0.1
			c-0.1-0.3-0.1-0.7-0.2-1c-0.3,0-0.7-0.1-1-0.2c-3.4-0.8-6-3.8-6-7.5c0-4.2,3.4-7.7,7.7-7.7c3.7,0,6.7,2.5,7.5,6
			c0.1,0.3,0.1,0.7,0.2,1c0.3,0,0.7,0.1,1,0.2C17.8,8.6,17.8,8.3,17.7,7.9z"/>
	</g>
	<g>
		<path d="M17.7,7.9c-0.3-0.1-0.7-0.1-1-0.1c-0.2,0-0.4,0-0.5,0c-4.8,0-8.7,3.9-8.7,8.7c0,0.2,0,0.4,0,0.5c0,0.4,0.1,0.7,0.1,1
			c0.7,4,4.3,7.1,8.5,7.1c4.8,0,8.7-3.9,8.7-8.7C24.8,12.2,21.8,8.7,17.7,7.9z M16.2,24.1c-3.7,0-6.7-2.5-7.5-6
			c-0.1-0.3-0.1-0.7-0.2-1c0-0.2,0-0.5,0-0.7c0-4.2,3.4-7.7,7.7-7.7c0.2,0,0.5,0,0.7,0c0.3,0,0.7,0.1,1,0.2c3.4,0.8,6,3.8,6,7.5
			C23.8,20.7,20.4,24.1,16.2,24.1z"/>
	</g>
</g>
<g class="st0">
	<g class="st1">
		<circle cx="8.7" cy="7.7" r="8.2"/>
		<g>
			<path d="M8.7,0c4.2,0,7.7,3.4,7.7,7.7s-3.4,7.7-7.7,7.7S1,11.9,1,7.7S4.4,0,8.7,0 M8.7-1C3.9-1,0,2.9,0,7.7
				c0,4.8,3.9,8.7,8.7,8.7c4.8,0,8.7-3.9,8.7-8.7C17.4,2.9,13.5-1,8.7-1L8.7-1z"/>
		</g>
	</g>
	<g class="st1">
		<circle cx="23.3" cy="22.3" r="8.2"/>
		<g>
			<path d="M23.3,14.6c4.2,0,7.7,3.4,7.7,7.7S27.6,30,23.3,30s-7.7-3.4-7.7-7.7S19.1,14.6,23.3,14.6 M23.3,13.6
				c-4.8,0-8.7,3.9-8.7,8.7c0,4.8,3.9,8.7,8.7,8.7c4.8,0,8.7-3.9,8.7-8.7C32,17.5,28.1,13.6,23.3,13.6L23.3,13.6z"/>
		</g>
	</g>
</g>
<g class="st0">
	<circle class="st1" cx="8.7" cy="7.7" r="8.7"/>
	<circle class="st1" cx="23.3" cy="22.3" r="8.7"/>
</g>
<text transform="matrix(1 0 0 1 0 46.0035)" style="font-family:'Arial-BoldMT'; font-size:5px;">Created by Alfredo @ IconsAlfredo.com</text>
<text transform="matrix(1 0 0 1 0 51.0035)" style="font-family:'Arial-BoldMT'; font-size:5px;">from the Noun Project</text>
</svg>
