<?xml version="1.0" encoding="utf-8"?>
<!-- Generator: Adobe Illustrator 22.0.0, SVG Export Plug-In . SVG Version: 6.00 Build 0)  -->
<svg version="1.1" id="Layer_1" xmlns="http://www.w3.org/2000/svg" xmlns:xlink="http://www.w3.org/1999/xlink" x="0px" y="0px"
	 viewBox="0 0 91 79" style="enable-background:new 0 0 91 79;" xml:space="preserve">
<g>
	<path d="M79.7,5.6C75.6,2.2,70.4,0.3,65,0.3c-6.3,0-12.3,2.5-16.6,6.8c-1,1-1.9,2.1-2.8,3.4C41.2,4.2,34.1,0.3,26.5,0.3
		c-1.4,0-2.8,0.1-4.2,0.4C15,2,9.3,6,5.3,12.5c-5.7,9.4-6.1,18-1.4,26.4c2.6,4.5,5.9,8.9,10.2,13.5c7.9,8.4,17.2,16.3,29.4,25.1
		c0.6,0.5,1.3,0.7,2,0.7c1.1,0,1.8-0.6,2.3-0.9C58.7,69.6,67.5,62.1,75,54.5c4.2-4.3,8.9-9.5,12.4-16c1.5-2.7,3.1-6.4,3-10.6
		C90.2,18.8,86.6,11.3,79.7,5.6z M82.9,36.1c-3.2,6-7.6,10.9-11.5,14.9c-7.1,7.2-15.5,14.3-25.8,21.7C34.1,64.5,25.3,56.9,17.8,49
		c-4-4.3-7.1-8.4-9.5-12.5c-3.8-6.8-3.4-13.6,1.3-21.3c3.2-5.3,7.7-8.4,13.5-9.5c1.1-0.2,2.2-0.3,3.3-0.3c6.9,0,12.9,3.8,16.2,10.1
		c0.2,0.4,0.4,0.7,0.7,1.3c0.4,0.8,1.3,1.3,2.2,1.3c0,0,0,0,0,0c0.9,0,1.8-0.6,2.2-1.4c1.2-2.4,2.5-4.3,4.1-5.9
		c3.4-3.4,8.1-5.3,13-5.3c4.2,0,8.3,1.4,11.5,4.1c5.7,4.7,8.7,11,8.9,18.6C85.5,31,84.2,33.8,82.9,36.1z"/>
</g>
</svg>
