<?xml version="1.0" encoding="utf-8"?>
<!-- Generator: Adobe Illustrator 22.0.0, SVG Export Plug-In . SVG Version: 6.00 Build 0)  -->
<svg version="1.1" id="Layer_1" xmlns="http://www.w3.org/2000/svg" xmlns:xlink="http://www.w3.org/1999/xlink" x="0px" y="0px"
	 viewBox="0 0 72.3 70.9" style="enable-background:new 0 0 72.3 70.9;" xml:space="preserve">
<path d="M36.1,50.4c17.5,0,30.2,13.7,30.2,20.9h4.5c0-7.9-9.8-19.2-23.4-23.6c8.2-4.2,13.8-12.7,13.8-22.5C61.3,11.3,50,0,36.1,0
	C22.2,0,10.9,11.3,10.9,25.2c0,9.8,5.6,18.3,13.8,22.5C11.2,52.1,1.4,63.3,1.4,71.3h4.5C5.9,64.2,18.7,50.4,36.1,50.4z M15.5,25.2
	c0-11.4,9.3-20.7,20.7-20.7s20.7,9.3,20.7,20.7s-9.3,20.7-20.7,20.7S15.5,36.6,15.5,25.2z"/>
</svg>
